<svg width="20" height="21" viewBox="0 0 20 21" fill="none" xmlns="http://www.w3.org/2000/svg">
<path d="M9.99999 4.11914C12.3225 4.11914 14.3858 5.16664 15.855 6.46331C16.5925 7.11414 17.2 7.84497 17.6283 8.57247C18.0492 9.28664 18.3333 10.0608 18.3333 10.7858C18.3333 11.5108 18.05 12.285 17.6283 12.9991C17.2 13.7266 16.5925 14.4575 15.855 15.1083C14.3858 16.405 12.3217 17.4525 9.99999 17.4525C7.67749 17.4525 5.61416 16.405 4.14499 15.1083C3.40749 14.4575 2.79999 13.7266 2.37166 12.9991C1.94999 12.285 1.66666 11.5108 1.66666 10.7858C1.66666 10.0608 1.94999 9.28664 2.37166 8.57247C2.79999 7.84497 3.40749 7.11414 4.14499 6.46331C5.61416 5.16664 7.67832 4.11914 9.99999 4.11914ZM9.99999 5.78581C8.17999 5.78581 6.49332 6.61331 5.24832 7.71247C4.62832 8.25914 4.13832 8.85664 3.80749 9.41831C3.46916 9.99331 3.33332 10.4691 3.33332 10.7858C3.33332 11.1025 3.46916 11.5783 3.80749 12.1533C4.13832 12.715 4.62832 13.3116 5.24832 13.8591C6.49332 14.9583 8.17999 15.7858 9.99999 15.7858C11.82 15.7858 13.5067 14.9583 14.7517 13.8591C15.3717 13.3116 15.8617 12.715 16.1925 12.1533C16.5308 11.5783 16.6667 11.1025 16.6667 10.7858C16.6667 10.4691 16.5308 9.99331 16.1925 9.41831C15.8617 8.85664 15.3717 8.25997 14.7517 7.71247C13.5067 6.61331 11.82 5.78581 9.99999 5.78581ZM9.99999 8.28581C10.0733 8.28581 10.1458 8.28914 10.2175 8.29497C10.0366 8.61235 9.96493 8.98039 10.0136 9.34246C10.0623 9.70453 10.2286 10.0406 10.4869 10.2989C10.7452 10.5572 11.0813 10.7235 11.4433 10.7722C11.8054 10.8209 12.1734 10.7492 12.4908 10.5683C12.5346 11.0701 12.4259 11.5735 12.1787 12.0124C11.9316 12.4513 11.5576 12.8053 11.1058 13.0281C10.654 13.2508 10.1455 13.3319 9.64684 13.2607C9.14819 13.1895 8.68267 12.9693 8.3113 12.629C7.93992 12.2887 7.68001 11.8441 7.56562 11.3535C7.45123 10.863 7.48769 10.3493 7.67023 9.87984C7.85277 9.41036 8.17288 9.00697 8.5886 8.72253C9.00432 8.43809 9.49627 8.28587 9.99999 8.28581Z" fill="#09244B" fill-opacity="0.3"/>
</svg>
