<svg width="20" height="21" viewBox="0 0 20 21" fill="none" xmlns="http://www.w3.org/2000/svg">
<g clip-path="url(#clip0_7243_1162)">
<path d="M2.54166 7.9845C2.50624 7.87871 2.49241 7.76689 2.50101 7.65566C2.50961 7.54443 2.54046 7.43606 2.59172 7.33698C2.64299 7.23789 2.71362 7.15011 2.79945 7.07883C2.88527 7.00755 2.98453 6.95423 3.09134 6.92203C3.19815 6.88983 3.31035 6.87941 3.42126 6.89137C3.53218 6.90334 3.63956 6.93746 3.73705 6.9917C3.83454 7.04594 3.92014 7.11921 3.98878 7.20715C4.05743 7.2951 4.10771 7.39593 4.13666 7.50367C5.87499 13.3253 14.1217 13.3262 15.8617 7.507C15.8928 7.40205 15.9444 7.30427 16.0134 7.21925C16.0824 7.13423 16.1674 7.06362 16.2637 7.01147C16.3599 6.95931 16.4655 6.92663 16.5744 6.91528C16.6833 6.90393 16.7934 6.91414 16.8983 6.94533C17.0033 6.97652 17.101 7.02808 17.1861 7.09705C17.2711 7.16603 17.3417 7.25108 17.3939 7.34734C17.446 7.44361 17.4787 7.5492 17.49 7.65809C17.5014 7.76699 17.4912 7.87705 17.46 7.982C17.1568 9.02466 16.6425 9.99387 15.9492 10.8295L17.0117 11.8928C17.1635 12.05 17.2475 12.2605 17.2456 12.479C17.2437 12.6975 17.156 12.9065 17.0015 13.061C16.847 13.2155 16.638 13.3032 16.4195 13.3051C16.201 13.307 15.9905 13.223 15.8333 13.0712L14.7408 11.9787C14.1512 12.4233 13.4999 12.7795 12.8075 13.0362L13.105 14.1487C13.1367 14.2554 13.1468 14.3674 13.1345 14.478C13.1222 14.5887 13.0879 14.6957 13.0336 14.7929C12.9793 14.8901 12.906 14.9754 12.8182 15.0438C12.7303 15.1122 12.6297 15.1623 12.5221 15.1911C12.4146 15.2199 12.3024 15.227 12.1921 15.2117C12.0818 15.1965 11.9757 15.1593 11.8801 15.1023C11.7844 15.0454 11.7011 14.9699 11.6351 14.8802C11.5691 14.7906 11.5218 14.6886 11.4958 14.5803L11.1925 13.4495C10.4033 13.5662 9.59666 13.5662 8.80749 13.4495L8.50416 14.5803C8.47823 14.6886 8.43087 14.7906 8.36487 14.8802C8.29887 14.9699 8.21558 15.0454 8.11991 15.1023C8.02424 15.1593 7.91814 15.1965 7.80786 15.2117C7.69758 15.227 7.58536 15.2199 7.47784 15.1911C7.37031 15.1623 7.26965 15.1122 7.18181 15.0438C7.09396 14.9754 7.02071 14.8901 6.96638 14.7929C6.91205 14.6957 6.87775 14.5887 6.86548 14.478C6.85322 14.3674 6.86326 14.2554 6.89499 14.1487L7.19249 13.0362C6.50004 12.7792 5.84874 12.4227 5.25916 11.9778L4.16749 13.0712C4.01124 13.2276 3.79922 13.3156 3.57808 13.3158C3.35694 13.316 3.1448 13.2283 2.98833 13.072C2.83185 12.9157 2.74385 12.7037 2.7437 12.4826C2.74354 12.2615 2.83124 12.0493 2.98749 11.8928L4.04999 10.8303C3.39666 10.0503 2.87499 9.102 2.53999 7.98533L2.54166 7.9845Z" fill="#09244B" fill-opacity="0.3"/>
</g>
<defs>
<clipPath id="clip0_7243_1162">
<rect width="20" height="20" fill="white" transform="translate(0 0.226166)"/>
</clipPath>
</defs>
</svg>
