<svg width="160" height="34" viewBox="0 0 160 34" fill="none" xmlns="http://www.w3.org/2000/svg">
<path d="M19.746 29.0111L24.8786 14.1328H28.3935L33.526 29.0111H30.5703L29.5118 25.8158H23.7602L22.6818 29.0111H19.746ZM24.5391 23.4193H28.733L26.2566 16.01H27.0155L24.5391 23.4193ZM34.9622 29.0111V18.1469H37.4186V20.6633L37.139 20.2439C37.3387 19.4584 37.7381 18.8725 38.3373 18.4864C38.9364 18.1003 39.642 17.9073 40.4542 17.9073C41.3462 17.9073 42.1317 18.1403 42.8107 18.6063C43.4897 19.0723 43.9291 19.6847 44.1288 20.4436L43.3899 20.5035C43.7227 19.6381 44.222 18.9924 44.8877 18.5663C45.5534 18.127 46.319 17.9073 47.1844 17.9073C47.9566 17.9073 48.6422 18.0804 49.2414 18.4265C49.8538 18.7727 50.3331 19.2586 50.6793 19.8844C51.0254 20.4968 51.1985 21.2091 51.1985 22.0213V29.0111H48.5823V22.6404C48.5823 22.1611 48.4958 21.7484 48.3227 21.4022C48.1496 21.056 47.91 20.7897 47.6038 20.6034C47.2975 20.4036 46.9247 20.3038 46.4854 20.3038C46.0727 20.3038 45.7065 20.4036 45.387 20.6034C45.0674 20.7897 44.8211 21.056 44.6481 21.4022C44.475 21.7484 44.3884 22.1611 44.3884 22.6404V29.0111H41.7722V22.6404C41.7722 22.1611 41.6857 21.7484 41.5126 21.4022C41.3395 21.056 41.0932 20.7897 40.7737 20.6034C40.4675 20.4036 40.1013 20.3038 39.6753 20.3038C39.2626 20.3038 38.8964 20.4036 38.5769 20.6034C38.2574 20.7897 38.0111 21.056 37.838 21.4022C37.6649 21.7484 37.5784 22.1611 37.5784 22.6404V29.0111H34.9622ZM56.7071 29.2508C55.9482 29.2508 55.2891 29.1243 54.7299 28.8713C54.1708 28.6183 53.7381 28.2589 53.4318 27.7929C53.1256 27.3136 52.9725 26.7611 52.9725 26.1353C52.9725 25.5362 53.1056 25.0036 53.3719 24.5376C53.6382 24.0583 54.0509 23.6589 54.6101 23.3394C55.1693 23.0198 55.8749 22.7935 56.727 22.6604L60.2819 22.0812V24.0783L57.2263 24.5975C56.7071 24.6907 56.321 24.8572 56.068 25.0968C55.815 25.3365 55.6885 25.6493 55.6885 26.0354C55.6885 26.4082 55.8283 26.7078 56.1079 26.9341C56.4008 27.1472 56.7603 27.2537 57.1864 27.2537C57.7322 27.2537 58.2115 27.1405 58.6243 26.9142C59.0503 26.6745 59.3765 26.3483 59.6028 25.9356C59.8425 25.5229 59.9623 25.0702 59.9623 24.5776V21.7816C59.9623 21.3156 59.7759 20.9295 59.4031 20.6233C59.0437 20.3038 58.5644 20.144 57.9652 20.144C57.406 20.144 56.9068 20.2971 56.4674 20.6034C56.0414 20.8963 55.7285 21.289 55.5288 21.7816L53.3919 20.7431C53.6049 20.1707 53.9378 19.678 54.3904 19.2653C54.8564 18.8393 55.4023 18.5064 56.028 18.2668C56.6538 18.0271 57.3328 17.9073 58.0651 17.9073C58.9571 17.9073 59.7426 18.0737 60.4217 18.4066C61.1007 18.7261 61.6266 19.1788 61.9994 19.7646C62.3855 20.3371 62.5785 21.0094 62.5785 21.7816V29.0111H60.1021V27.1538L60.6613 27.1139C60.3817 27.5799 60.0489 27.9726 59.6628 28.2922C59.2767 28.5984 58.8373 28.838 58.3447 29.0111C57.8521 29.1709 57.3062 29.2508 56.7071 29.2508ZM64.9965 29.0111V18.1469H67.453V20.2838L67.2533 19.9044C67.5062 19.252 67.919 18.7594 68.4915 18.4265C69.0773 18.0804 69.7563 17.9073 70.5285 17.9073C71.3273 17.9073 72.033 18.0804 72.6454 18.4265C73.2712 18.7727 73.7571 19.2586 74.1033 19.8844C74.4494 20.4968 74.6225 21.2091 74.6225 22.0213V29.0111H72.0063V22.6404C72.0063 22.1611 71.9131 21.7484 71.7267 21.4022C71.5404 21.056 71.2807 20.7897 70.9479 20.6034C70.6283 20.4036 70.2489 20.3038 69.8095 20.3038C69.3835 20.3038 69.004 20.4036 68.6712 20.6034C68.3383 20.7897 68.0787 21.056 67.8923 21.4022C67.7059 21.7484 67.6127 22.1611 67.6127 22.6404V29.0111H64.9965Z" fill="black"/>
<path d="M77.0545 29.0111V14.1328H79.6507L85.2226 21.7018H83.9844L89.4364 14.1328H92.0326V29.0111H89.2966V17.2283L90.3551 17.4879L84.7033 25.0169H84.3838L78.8718 17.4879L79.7705 17.2283V29.0111H77.0545ZM99.8129 29.2508C98.6945 29.2508 97.7159 28.9978 96.8771 28.4919C96.0384 27.9859 95.386 27.3003 94.92 26.4349C94.454 25.5695 94.221 24.6109 94.221 23.559C94.221 22.4673 94.454 21.502 94.92 20.6633C95.3993 19.8112 96.045 19.1388 96.8572 18.6462C97.6826 18.1536 98.6013 17.9073 99.6132 17.9073C100.465 17.9073 101.211 18.0471 101.85 18.3267C102.502 18.6063 103.055 18.9924 103.507 19.485C103.96 19.9776 104.306 20.5434 104.546 21.1825C104.786 21.8083 104.905 22.4873 104.905 23.2195C104.905 23.4059 104.892 23.599 104.866 23.7987C104.852 23.9984 104.819 24.1715 104.766 24.3179H96.3779V22.3209H103.288L102.05 23.2595C102.169 22.647 102.136 22.1012 101.95 21.6219C101.777 21.1426 101.484 20.7631 101.071 20.4835C100.672 20.2039 100.186 20.0641 99.6132 20.0641C99.0673 20.0641 98.5813 20.2039 98.1553 20.4835C97.7292 20.7498 97.403 21.1492 97.1767 21.6818C96.9637 22.201 96.8838 22.8334 96.9371 23.579C96.8838 24.2447 96.9703 24.8372 97.1967 25.3564C97.4363 25.8624 97.7825 26.2551 98.2352 26.5347C98.7012 26.8143 99.2337 26.9541 99.8328 26.9541C100.432 26.9541 100.938 26.8276 101.351 26.5747C101.777 26.3217 102.11 25.9822 102.349 25.5561L104.466 26.5946C104.253 27.1139 103.92 27.5732 103.468 27.9726C103.015 28.372 102.476 28.6849 101.85 28.9113C101.237 29.1376 100.558 29.2508 99.8129 29.2508ZM106.889 29.0111V18.1469H109.345V20.6633L109.065 20.2439C109.265 19.4584 109.665 18.8725 110.264 18.4864C110.863 18.1003 111.569 17.9073 112.381 17.9073C113.273 17.9073 114.058 18.1403 114.737 18.6063C115.416 19.0723 115.856 19.6847 116.055 20.4436L115.316 20.5035C115.649 19.6381 116.149 18.9924 116.814 18.5663C117.48 18.127 118.245 17.9073 119.111 17.9073C119.883 17.9073 120.569 18.0804 121.168 18.4265C121.78 18.7727 122.26 19.2586 122.606 19.8844C122.952 20.4968 123.125 21.2091 123.125 22.0213V29.0111H120.509V22.6404C120.509 22.1611 120.422 21.7484 120.249 21.4022C120.076 21.056 119.836 20.7897 119.53 20.6034C119.224 20.4036 118.851 20.3038 118.412 20.3038C117.999 20.3038 117.633 20.4036 117.313 20.6034C116.994 20.7897 116.748 21.056 116.575 21.4022C116.401 21.7484 116.315 22.1611 116.315 22.6404V29.0111H113.699V22.6404C113.699 22.1611 113.612 21.7484 113.439 21.4022C113.266 21.056 113.02 20.7897 112.7 20.6034C112.394 20.4036 112.028 20.3038 111.602 20.3038C111.189 20.3038 110.823 20.4036 110.503 20.6034C110.184 20.7897 109.938 21.056 109.764 21.4022C109.591 21.7484 109.505 22.1611 109.505 22.6404V29.0111H106.889ZM125.338 29.0111V18.1469H127.955V29.0111H125.338ZM125.338 16.9287V14.1328H127.955V16.9287H125.338ZM130.37 29.0111V13.8931H132.986V29.0111H130.37ZM135.402 29.0111V18.1469H138.018V29.0111H135.402ZM135.402 16.9287V14.1328H138.018V16.9287H135.402ZM140.434 29.0111V13.8931H143.05V20.2838L142.69 19.9044C142.943 19.252 143.356 18.7594 143.928 18.4265C144.514 18.0804 145.193 17.9073 145.965 17.9073C146.764 17.9073 147.47 18.0804 148.082 18.4265C148.708 18.7727 149.194 19.2586 149.54 19.8844C149.886 20.4968 150.06 21.2091 150.06 22.0213V29.0111H147.443V22.6404C147.443 22.1611 147.35 21.7484 147.164 21.4022C146.977 21.056 146.718 20.7897 146.385 20.6034C146.065 20.4036 145.686 20.3038 145.247 20.3038C144.82 20.3038 144.441 20.4036 144.108 20.6034C143.775 20.7897 143.516 21.056 143.329 21.4022C143.143 21.7484 143.05 22.1611 143.05 22.6404V29.0111H140.434ZM153.51 29.0111V26.2152H156.146V29.0111H153.51Z" fill="#FF7272"/>
<rect x="6.86675" width="5.20528" height="6.57782" rx="0.569732" fill="#C3C3C3"/>
<path d="M-1.14441e-05 9.43644C-1.14441e-05 8.43527 0.811599 7.62366 1.81277 7.62366H17.7135C18.7146 7.62366 19.5263 8.43527 19.5263 9.43644V30.2317C19.5263 31.2328 18.7147 32.0445 17.7135 32.0445H1.81277C0.811601 32.0445 -1.14441e-05 31.2328 -1.14441e-05 30.2317V9.43644Z" fill="#FF7272"/>
<rect x="1.82881" y="11.1357" width="15.8686" height="20.1934" rx="1.09751" fill="white" stroke="black" stroke-width="1.43055"/>
</svg>
