<svg width="40" height="34" viewBox="0 0 40 34" fill="none" xmlns="http://www.w3.org/2000/svg">
<path opacity="0.4" d="M34.7727 12.5852C34.0815 12.5852 33.5186 12.0195 33.5094 11.3155V9.4625C33.5319 7.88962 32.9388 6.37231 31.861 5.24561C30.7833 4.1189 29.3096 3.47548 27.7654 3.4574H26.4178C25.7201 3.4574 25.1544 2.88128 25.1544 2.1706C25.1544 1.45991 25.7201 0.883789 26.4178 0.883789H27.7654C32.3774 0.940165 36.0869 4.76452 36.0866 9.4625V11.2984C36.0957 11.6364 35.9702 11.9639 35.7386 12.2063C35.507 12.4486 35.189 12.5853 34.857 12.5852H34.7727ZM5.2946 12.5853C4.9611 12.5897 4.6397 12.458 4.40228 12.2194C4.16486 11.9808 4.03122 11.6552 4.03125 11.3155V9.4625C4.00424 7.19681 4.86899 5.01442 6.43247 3.40257C7.99595 1.79072 10.128 0.883622 12.3525 0.883789H13.7338C14.4315 0.883789 14.9971 1.45991 14.9971 2.1706C14.9971 2.88128 14.4315 3.4574 13.7338 3.4574H12.3694C10.8119 3.45255 9.31819 4.08646 8.22488 5.21621C7.13158 6.34596 6.53078 7.87642 6.55795 9.4625V11.3155C6.54873 12.0195 5.98581 12.5853 5.2946 12.5853Z" fill="white"/>
<path d="M36.0361 20.186V25.0072C35.9822 29.6453 32.3186 33.3998 27.7654 33.483H26.401C25.9179 33.5401 25.4456 33.3097 25.1864 32.8906C24.9272 32.4715 24.9272 31.938 25.1864 31.5189C25.4456 31.0998 25.9179 30.8694 26.401 30.9265H27.7654C30.9777 30.9171 33.5768 28.262 33.5768 24.9901V20.186H36.0361ZM14.9972 32.2133C14.9881 32.9202 14.4277 33.4909 13.7338 33.5001H12.3525C7.74054 33.4438 4.03096 29.6194 4.03129 24.9214V20.186H6.55799V25.0072C6.55793 28.2725 9.14686 30.9248 12.3525 30.9437H13.7338C14.0673 30.9391 14.3887 31.0708 14.6261 31.3094C14.8635 31.548 14.9972 31.8736 14.9972 32.2133ZM39.1861 18.8992C39.1861 19.6099 38.6204 20.186 37.9227 20.186H2.07731C1.37959 20.186 0.813965 19.6099 0.813965 18.8992C0.813965 18.1885 1.37959 17.6124 2.07731 17.6124H37.8722C38.2159 17.5983 38.5504 17.7277 38.7983 17.9706C39.0463 18.2134 39.1861 18.5488 39.1861 18.8992Z" fill="white"/>
<path opacity="0.4" d="M28.7761 14.5068V12.2935C28.7761 11.2241 28.3591 10.1986 27.6167 9.44242C26.8743 8.68627 25.8675 8.26147 24.8176 8.26147H15.1825C12.9963 8.26147 11.224 10.0667 11.224 12.2935V14.5068C11.2327 14.7683 11.4389 14.9783 11.6956 14.9872H28.3045C28.5613 14.9783 28.7674 14.7683 28.7761 14.5068Z" fill="white"/>
<path d="M28.7761 20.1858V22.1074C28.7761 24.3342 27.0038 26.1394 24.8176 26.1394H15.1825C12.9963 26.1394 11.224 24.3342 11.224 22.1074V20.1858H28.7761Z" fill="white"/>
</svg>
